HIERARCHY
ROOT Hips
{
	OFFSET 0.000000 0.000000 0.000000
	CHANNELS 6 Xposition Yposition Zposition Zrotation Yrotation Xrotation 
	JOINT LHipJoint
	{
		OFFSET 0.000000 0.000000 0.000000
		CHANNELS 3 Zrotation Yrotation Xrotation
		JOINT LeftUpLeg
		{
			OFFSET 1.363060 -1.794630 0.839290
			CHANNELS 3 Zrotation Yrotation Xrotation
			JOINT LeftLeg
			{
				OFFSET 2.448110 -6.726130 0.000000
				CHANNELS 3 Zrotation Yrotation Xrotation
				JOINT LeftFoot
				{
					OFFSET 2.562200 -7.039590 0.000000
					CHANNELS 3 Zrotation Yrotation Xrotation
					JOINT LeftToeBase
					{
						OFFSET 0.157640 -0.433110 2.322550
						CHANNELS 3 Zrotation Yrotation Xrotation
						End Site
						{
							OFFSET 0.000000 0.000000 0.000000
						}
					}
				}
			}
		}
	}
	JOINT RHipJoint
	{
		OFFSET 0.000000 0.000000 0.000000
		CHANNELS 3 Zrotation Yrotation Xrotation
		JOINT RightUpLeg
		{
			OFFSET -1.305520 -1.794630 0.839290
			CHANNELS 3 Zrotation Yrotation Xrotation
			JOINT RightLeg
			{
				OFFSET -2.542530 -6.985550 0.000000
				CHANNELS 3 Zrotation Yrotation Xrotation
				JOINT RightFoot
				{
					OFFSET -2.568260 -7.056230 0.000000
					CHANNELS 3 Zrotation Yrotation Xrotation
					JOINT RightToeBase
					{
						OFFSET -0.164730 -0.452590 2.363150
						CHANNELS 3 Zrotation Yrotation Xrotation
						End Site
						{
							OFFSET 0.000000 0.000000 0.000000
						}
					}
				}
			}
		}
	}
}
MOTION
Frames: 19
Frame Time: 0.008333
-10.374337 16.953292 -1.537823 172.213954 83.428126 176.347464 -11.352586 5.557463 0.619248 1.699866 11.833209 4.088635 -0.565381 2.081576 29.678453 0.474890 -4.450194 15.180403 -1.801999 -0.000000 -78.647900 8.456082 -1.330940 0.460400 19.479078 -10.731476 -27.053591 2.897919 0.030260 15.201472 -2.600434 -10.665754 -8.668144 -0.574000 0.000000 -20.496900
-10.162900 16.960176 -1.522819 172.952334 83.443414 177.002225 -11.440296 5.536398 0.631378 2.204883 11.828116 3.067400 -0.382539 2.187993 32.204221 0.602679 -4.841064 17.171207 -2.178300 0.000001 -76.019700 8.444770 -1.394237 0.441132 19.452862 -10.540211 -26.749677 2.855669 -0.114705 16.597257 -2.604993 -10.467500 -9.442205 -0.369400 -0.000000 -15.822301
-9.955314 16.967530 -1.507661 173.746983 83.503198 177.741076 -11.524585 5.487584 0.641051 2.636667 11.776881 1.924087 -0.216955 2.281712 34.790732 0.734298 -5.013992 18.850430 -2.462100 -0.000001 -72.196100 8.426424 -1.455210 0.421169 19.473679 -10.363920 -26.420081 2.823302 -0.237714 17.850822 -2.614938 -10.286078 -10.245904 -0.164700 0.000000 -11.550700
-9.751457 16.975285 -1.491894 174.486797 83.595134 178.452152 -11.599379 5.415387 0.648741 2.966062 11.660144 0.678796 -0.071309 2.368547 37.390463 0.858874 -4.913558 20.106654 -2.595800 0.000000 -67.453099 8.404861 -1.511309 0.400864 19.519854 -10.207757 -26.034947 2.799136 -0.333164 18.901899 -2.632941 -10.139167 -11.056934 0.035200 0.000000 -7.869100
-9.551100 16.983278 -1.475399 175.165197 83.705952 179.132173 -11.665217 5.322933 0.654247 3.195073 11.482901 -0.670314 0.056668 2.453207 39.968166 0.969611 -4.535842 20.894041 -2.557300 -0.000001 -62.238600 8.378523 -1.561931 0.385116 19.583966 -10.049363 -25.579389 2.781320 -0.398607 19.728019 -2.666183 -10.055448 -11.879305 0.232500 -0.000001 -4.705699
-9.353926 16.991453 -1.458006 175.755508 83.820694 179.753314 -11.721498 5.213186 0.659381 3.322075 11.239055 -2.113307 0.170902 2.538485 42.479156 1.063733 -3.887619 21.200367 -2.345100 -0.000000 -57.053400 8.347996 -1.605896 0.374575 19.655622 -9.882199 -25.041396 2.768575 -0.433411 20.316898 -2.717181 -10.045014 -12.710459 0.429700 0.000001 -1.982000
-9.159520 16.999848 -1.439660 176.249089 83.925361 -179.693890 -11.768288 5.088146 0.667395 3.351727 10.921140 -3.639296 0.275217 2.624738 44.880974 1.141407 -2.995422 21.039892 -1.980800 0.000001 -52.322500 8.313706 -1.642842 0.369693 19.728765 -9.700587 -24.416990 2.759549 -0.438691 20.669186 -2.786477 -10.111767 -13.539935 -179.371900 0.000001 -0.376000
-8.967496 17.008526 -1.420278 176.592544 84.009483 -179.267932 -11.803683 4.950088 0.681174 3.284237 10.519718 -5.227585 0.371498 2.710956 47.131156 1.204338 -1.897687 20.441419 -1.500800 -0.000000 -48.288300 8.279500 -1.671081 0.367234 19.790352 -9.511302 -23.707175 2.752217 -0.417707 20.802294 -2.870630 -10.244767 -14.352266 -179.172600 -0.000000 -2.425100
-8.777395 17.017607 -1.399890 176.781875 84.066021 -178.976719 -11.827329 4.800380 0.703582 3.130323 10.031634 -6.860096 0.459737 2.794809 49.193450 1.254699 -0.646867 19.438088 -0.953100 -0.000000 -45.021800 8.247232 -1.690676 0.365631 19.835852 -9.316367 -22.917197 2.744889 -0.374124 20.736432 -2.965658 -10.433529 -15.125122 -178.975200 0.000000 -4.203900
-8.588828 17.027193 -1.378687 176.825020 84.093284 -178.816662 -11.839008 4.640058 0.736733 2.903662 9.457864 -8.516141 0.537965 2.873292 51.032716 1.295130 0.699240 18.073851 -0.388900 -0.000001 -42.520200 8.218458 -1.702138 0.363171 19.862945 -9.117438 -22.054896 2.736004 -0.312272 20.496750 -3.066418 -10.664321 -15.833567 -178.784900 0.000000 -5.729300
-8.401461 17.037456 -1.356838 176.739692 84.094750 -178.774589 -11.838634 4.470287 0.781886 2.620036 8.805414 -10.174374 0.602645 2.943358 52.618482 1.327940 2.079523 16.396144 0.142000 0.000000 -40.652500 8.194232 -1.706547 0.358338 19.871415 -8.916967 -21.130138 2.724438 -0.236712 20.111196 -3.167423 -10.921933 -16.455113 -178.607700 -0.000001 -7.004600
-8.214995 17.048496 -1.334573 176.553847 84.078982 -178.825825 -11.826481 4.292139 0.839416 2.296620 8.086888 -11.815175 0.649442 3.002119 53.925424 1.355175 3.433297 14.461277 0.597000 0.000000 -39.246800 8.174533 -1.705479 0.350607 19.864065 -8.714113 -20.153202 2.709691 -0.151617 19.606029 -3.263744 -11.192206 -16.972071 -178.449700 0.000000 -8.028000
-8.029192 17.060401 -1.312096 176.272291 84.058696 -178.968998 -11.801976 4.107514 0.909341 1.946137 7.317888 -13.420717 0.673854 3.047201 54.935037 1.378262 4.705805 12.329063 0.945400 -0.000000 -38.061200 8.160336 -1.700286 0.338527 19.841531 -8.516018 -19.137534 2.691999 -0.061197 19.010974 -3.349874 -11.455601 -17.375434 -178.316300 0.000000 -8.800200
-7.843913 17.073081 -1.289603 175.960967 84.048805 -179.136411 -11.767348 3.916010 0.991230 1.589735 6.517306 -14.980496 0.673529 3.075844 55.632674 1.399992 5.852987 10.102730 1.173300 -0.000000 -37.290700 8.147228 -1.693039 0.327014 19.815008 -8.298726 -18.085073 2.671230 0.033742 18.330701 -3.427561 -11.721296 -17.662399 -178.209700 -0.000001 -9.330499
-7.658933 17.086508 -1.267216 175.580930 84.065808 -179.368545 -11.720875 3.720850 1.083117 1.230169 5.708469 -16.487189 0.645475 3.087906 56.024435 1.418566 6.836378 7.814440 1.277401 0.000000 -36.369700 8.137642 -1.684441 0.314071 19.781271 -8.079688 -17.011955 2.648955 0.130137 17.593621 -3.491676 -11.963439 -17.843912 -178.130800 0.000001 -9.639800
-7.474215 17.100396 -1.245008 175.131454 84.125705 -179.663965 -11.662708 3.523401 1.183613 0.874099 4.912478 -17.938540 0.589829 3.082452 56.114500 1.434679 7.637768 5.546358 1.271399 0.000000 -35.347400 8.130447 -1.675058 0.302819 19.743424 -7.851041 -15.924032 2.625841 0.228001 16.806780 -3.543544 -12.181804 -17.936389 -178.077100 -0.000000 -9.762200
-7.289571 17.114460 -1.223003 174.585947 84.242392 179.953289 -11.592185 3.325686 1.290495 0.522351 4.151468 -19.337348 0.507712 3.059672 55.917691 1.447694 8.250448 3.350939 1.176600 -0.000000 -34.137900 8.126028 -1.664881 0.295696 19.701087 -7.611265 -14.827885 2.602745 0.327763 15.977347 -3.584177 -12.372178 -17.962823 -178.043800 -0.000000 -9.743499
-7.104950 17.128261 -1.201174 173.906144 84.426774 179.447141 -11.508265 3.129858 1.401035 0.171778 3.446400 -20.688047 0.401170 3.020243 55.452353 1.457147 8.680900 1.265568 1.018300 0.000000 -32.690600 8.125477 -1.653377 0.295168 19.652150 -7.358817 -13.728024 2.580212 0.430432 15.109372 -3.615212 -12.532310 -17.948439 -178.024700 0.000000 -9.637000
-6.920218 17.141335 -1.179427 173.034213 84.686177 178.761510 -11.409119 2.938395 1.512676 -0.183893 2.815047 -21.995875 0.272922 2.964996 54.737021 1.463490 8.948345 -0.681522 0.821800 0.000000 -31.050600 8.131262 -1.639574 0.303018 19.592381 -7.095352 -12.628682 2.558515 0.536973 14.208055 -3.637801 -12.658139 -17.918201 -178.013200 -0.000000 -9.497400
